<svg width="125" height="100" viewBox="0 0 125 100" fill="none" xmlns="http://www.w3.org/2000/svg">
<g clip-path="url(#clip0_92_30)">
<path d="M91.9027 3L87.0836 3.05857L87.196 14.8882C74.9413 18.92 58.1387 20.8783 42.6263 22.0422C52.0227 51.2624 69.2269 74.7779 84.8858 100.076C90.4326 94.1111 98.5694 90.3698 107.23 89.1477C101.662 83.6519 97.4224 80.6605 91.4791 67.7711C99.851 79.0257 105.556 82.4799 112.261 86.5887C113.135 82.6149 114.654 79.1116 117.273 76.6728C119.593 74.512 122.635 73.4395 126.25 73.5336C113.701 55.3967 99.0301 38.0101 92.0264 16.0439L91.9027 3ZM38.918 6.54313L34.0994 6.61718C34.0994 6.61718 34.1663 12.183 34.2493 17.8368C34.2911 20.6641 34.3363 23.5128 34.3803 25.7058C34.3963 26.5057 34.4116 27.0957 34.4268 27.6911C25.2229 53.1024 15.9124 76.5493 1.25 98.5361C10.255 98.1152 19.0073 98.171 27.6351 98.5237C33.5955 79.5207 33.8855 57.5979 37.1735 37.2189C40.2301 58.0261 40.0023 79.5377 46.1378 99.6842C57.6399 100.619 69.0794 101.869 80.7684 103C65.864 78.9793 49.1195 55.9494 39.239 27.3227C39.2256 26.7819 39.2122 26.2921 39.1983 25.5816C39.1549 23.4099 39.1091 20.5672 39.0676 17.7458C38.9846 12.1029 38.918 6.54313 38.918 6.54313Z" fill="#333333"/>
</g>
<defs>
<clipPath id="clip0_92_30">
<rect width="125" height="100" fill="white"/>
</clipPath>
</defs>
</svg>
