<svg width="110" height="74" viewBox="0 0 110 74" fill="none" xmlns="http://www.w3.org/2000/svg">
<path d="M55.183 0.00285907C54.3554 0.0313714 53.2607 0.270702 52.2691 0.676787C51.1356 1.14055 50.1343 1.8324 49.6946 2.33936C49.4821 2.58474 49.4207 2.75495 49.4102 2.7988L49.5113 2.95022L53.4832 13.3773C54.1419 14.7954 55.049 15.4475 56.0886 15.7719C57.1346 16.0985 58.3884 16.0294 59.5063 15.6015C60.6243 15.1736 61.553 14.4079 62.0272 13.5048C62.499 12.6068 62.626 11.5672 61.9785 10.1433L56.7295 0.460352C56.5715 0.179117 56.37 0.0413071 55.5206 0.0037226C55.4081 -0.000934088 55.2955 -0.00122187 55.183 0.00285907ZM63.004 18.2387C61.7956 19.007 60.439 19.5144 59.0994 19.7377L60.8284 23.5009C60.3882 23.6366 59.9496 23.7765 59.5127 23.9206C56.508 24.9158 53.0524 26.1904 50.7491 28.134C48.5271 30.0089 46.9298 32.9297 45.6539 35.4785C45.037 36.7133 44.4652 37.9667 43.9392 39.2365C38.343 42.3798 33.3227 45.4941 31.4941 54.0673C37.5029 54.45 41.0733 55.0499 51.2748 54.6639C50.9021 52.6166 50.5354 49.9697 52.7139 47.1561C51.831 46.8361 51.0232 46.3632 50.3346 45.7631C46.788 42.6781 47.3995 37.3385 50.9647 33.8609C51.805 32.9638 52.6264 31.8451 53.6113 30.9973C54.8978 29.9117 58.1458 28.5055 60.9478 27.5776C61.4558 27.41 61.9661 27.2485 62.4786 27.0931L71.9329 47.6721C70.8138 48.1896 69.6051 48.697 68.3922 49.0748C65.9558 49.8336 63.7578 49.9825 62.1412 49.2098C60.5246 48.4372 59.5221 47.8367 58.6797 47.1861C56.6961 47.7998 54.6009 47.8304 52.7506 47.1692C54.9577 49.563 57.9549 51.6357 60.4118 52.8173C63.2855 54.1809 66.8034 53.675 69.7509 52.757C71.1258 52.3287 72.4241 51.793 73.5838 51.2653L75.5329 55.5076C76.2568 55.0896 77.0319 54.7414 77.8285 54.4572C78.3501 54.2704 78.8834 54.1124 79.4255 53.9839L77.338 49.4403L78.8131 48.7204L76.8288 45.2868L75.6864 45.8445L66.561 25.9811L68.1658 25.5996L67.1069 21.8362L64.9782 22.3423L63.004 18.2387ZM58.6296 34.6117C58.498 34.6071 58.3662 34.6076 58.2347 34.6132C56.8635 34.6715 55.3226 35.2804 54.0373 36.5341C51.7523 38.7628 51.7229 41.6171 53.2356 42.9332C54.7483 44.2491 57.8404 44.0586 60.1254 41.8299C62.4104 39.6011 62.4398 36.7469 60.9271 35.4308C60.348 34.9271 59.5376 34.6441 58.6296 34.6117ZM110 46.2651C102.001 49.6865 93.4196 52.2544 84.6437 54.104C85.7229 54.5282 86.6236 55.4787 86.9964 56.3634L92.324 66.1909L92.3498 66.2475C92.8132 67.2568 93.0537 68.2736 93.0982 69.2542C95.4372 67.7193 97.379 65.31 99.439 62.259C101.174 62.8543 102.76 63.4397 104.209 64.0166C105.032 62.6249 105.781 61.0956 106.439 59.4704C108.201 55.1196 109.343 50.2706 110 46.2651ZM0.0292804 51.677C-0.152457 55.6834 0.51219 59.9665 2.01264 63.4997C3.11177 66.0883 4.59764 68.2129 6.43147 69.6655C9.10934 68.047 10.3989 66.3032 10.3147 64.7342C17.7695 65.7293 22.0315 66.5399 27.0038 73.4725C35.3094 73.0392 37.7825 69.1413 37.8718 66.0896C44.2973 68.0651 51.3865 70.8989 55.116 73.7C61.2979 72.4949 67.8971 69.8802 70.1628 63.3319C71.1872 63.7146 72.1379 64.1412 73.0328 64.5912C71.8368 61.9408 71.273 59.3855 73.4113 57.1257C73.881 56.6446 74.4121 56.2219 74.9825 55.8474C66.5379 57.1239 58.0438 57.7925 49.831 57.9538C30.063 58.342 12.0559 55.8299 0.0292804 51.677ZM82.1803 57.5555C81.4507 57.5464 80.3728 57.7203 79.3604 58.0815C78.2032 58.4943 77.1229 59.1468 76.5598 59.7231C75.9974 60.2985 75.9669 60.5106 76.0748 60.8085L78.8357 68.0548C81.8866 69.9904 84.6092 71.4946 88.2559 71.0345C88.365 71.0207 88.4722 71.0043 88.5797 70.9876C88.9864 70.1247 89.0696 69.1251 88.4588 67.782L83.1962 58.0739C82.9641 57.71 82.8478 57.6104 82.4706 57.5706C82.3684 57.5598 82.2661 57.5592 82.1803 57.5555Z" fill="#333333"/>
</svg>
