<svg width="94" height="100" viewBox="0 0 94 100" fill="none" xmlns="http://www.w3.org/2000/svg">
<path d="M32.7943 51.953C32.1693 51.953 31.6068 51.5468 31.4271 50.914C31.2162 50.164 31.6537 49.3749 32.4115 49.1718C37.6849 47.703 43.0521 43.5077 43.1068 38.3358C43.1224 36.6874 42.7006 35.0468 42.2631 33.3046C41.9896 32.2499 41.7162 31.164 41.5287 30.0546C41.0209 26.9374 40.4115 19.1952 45.7006 14.5546C46.9584 13.453 49.5131 11.4452 52.5052 10.4062C53.2396 10.1562 54.0521 10.539 54.3099 11.2812C54.5677 12.0234 54.1771 12.828 53.4349 13.0859C51.5834 13.7265 49.4427 15.039 47.5756 16.6874C43.349 20.3984 43.8959 26.953 44.3334 29.6015C44.4896 30.5858 44.7396 31.5624 45.0052 32.6015C45.4818 34.4374 45.9662 36.3437 45.9427 38.3671C45.8646 45.2499 39.2709 50.2108 33.1771 51.9062C33.0521 51.9374 32.9193 51.953 32.7943 51.953Z" fill="#333333"/>
<path d="M85.6849 3.21103C82.1927 1.21884 78.5521 0.187588 74.8724 0.148526C61.7396 0.0157135 51.9427 10.0313 51.5912 10.5157C51.0365 11.2657 51.1927 12.3204 51.9427 12.8829C52.6927 13.4454 53.7474 13.3048 54.3177 12.5626C54.3959 12.461 63.5443 4.28134 74.2787 4.39071C77.4115 4.42196 80.5052 5.39071 83.4662 7.27353C85.5834 8.61728 86.974 10.7579 87.7709 13.1017C88.7709 16.0079 88.9584 19.1485 88.8802 22.1954C88.7787 26.047 88.1927 29.8751 87.4193 33.6407C86.5287 37.9923 85.349 42.2813 84.0287 46.5235C80.6068 57.4845 76.6068 68.1329 71.6302 78.4845C70.4584 80.922 69.3021 83.3673 68.1693 85.8204C66.9896 88.3907 63.0912 94.1641 66.3256 96.5548C68.9662 98.5157 72.0677 96.2735 73.6068 94.1095C75.3256 91.711 76.2006 88.8282 77.1693 86.0782C78.1927 83.1798 79.4427 80.3595 80.5209 77.4688C81.1381 75.797 81.7396 74.1173 82.3177 72.4376C83.9349 67.7267 85.3177 62.9454 86.9115 58.2345C88.2396 54.3126 89.4584 50.3517 90.5052 46.3438C91.5287 42.4688 92.4037 38.547 93.0287 34.5938C93.6068 30.961 93.9896 27.2892 93.9896 23.6095C93.9974 20.3907 93.724 17.1485 92.8959 14.0235C92.1771 11.3048 91.0209 8.67196 89.2474 6.47665C88.2393 5.2073 87.037 4.10517 85.6849 3.21103Z" fill="#333333"/>
<path d="M75.2864 93.6015C82.2786 77.4375 86.0052 63.3437 86.1614 62.5468C86.3255 61.7109 86.7708 58.7031 83.3177 57.6406C79.8646 56.5781 78.888 58.5078 78.888 58.5078C78.888 58.5078 70.2318 82.3281 64.9896 91.6171C64.7552 92.039 63.9271 94.1953 64.4896 96.0703C64.8255 97.1953 66.0755 98.3046 67.8411 98.7812C70.2239 99.4218 72.0364 98.6796 72.8411 97.7109C74.3802 95.8515 74.9818 94.3046 75.2864 93.6015Z" fill="#333333"/>
<path d="M69.7943 81.5391C69.7943 81.5391 71.1146 80.9766 72.1224 79.0078C73.1303 77.0391 74.5443 73.5469 77.0677 72.3594L79.0443 65.2188L77.5287 64.8984C77.5287 64.8984 73.8021 68.7656 70.8802 74.4297L69.7943 81.5391Z" fill="#333333"/>
<path d="M51.6536 81.211C52.0521 80.8439 52.349 80.336 52.4818 79.6642C52.9661 77.2735 51.3177 76.6017 49.4349 75.8439C47.724 75.1564 45.5677 74.711 44.2552 76.3829C42.9896 78.0001 43.2318 80.8595 45.4193 81.5314C47.1693 82.0626 50.1615 82.5939 51.6536 81.211Z" fill="#333333"/>
<path d="M52.8334 80.9219C52.4444 81.3591 51.9506 81.6903 51.3985 81.8843C50.8465 82.0784 50.2541 82.1289 49.6771 82.0313C49.6771 82.0313 48.7318 81.4844 48.9818 79.5313C49.1693 77.9922 50.1849 76.7734 51.4583 76.8281C51.4583 76.8281 52.4974 77.1094 54.2787 76.2734C55.2943 75.7891 59.6224 73.5312 61.474 70.8047L61.9349 76.0625C61.9349 76.0625 54.5287 79.0156 52.8334 80.9219Z" fill="#333333"/>
<path d="M62.2318 66.461C63.2474 64.1876 66.7318 63.5313 70.013 65.0001C73.3021 66.4688 75.1224 69.5001 74.1068 71.7735C73.0912 74.0548 69.6068 74.7032 66.3255 73.2344C63.0443 71.7657 61.2084 68.7344 62.2318 66.461Z" fill="#333333"/>
<path d="M70.1849 80.4688L74.1068 71.7734L66.224 65.9609L62.2318 66.4609L58.0677 75.9922L70.1849 80.4688Z" fill="#333333"/>
<path d="M70.0521 81.4999C69.0443 83.914 65.4037 84.6952 61.9271 83.2499C58.4349 81.7968 56.4271 78.6562 57.4349 76.2499C58.4506 73.8281 62.0834 73.0468 65.5599 74.4999C69.0521 75.9452 71.0599 79.0859 70.0521 81.4999Z" fill="#333333"/>
<path d="M71.263 78.9062C70.2552 81.3202 66.6145 82.1015 63.138 80.6562C59.6536 79.2031 57.6458 76.0702 58.6458 73.6562C59.6536 71.2343 63.2942 70.4531 66.7864 71.9062C70.263 73.3515 72.2708 76.4921 71.263 78.9062Z" fill="#333333"/>
<path d="M58.6458 73.6484L57.4349 76.25L65.8802 82.1406L70.0521 81.5L71.263 78.9063L58.6458 73.6484ZM65.3646 88.2188C64.6849 89.8516 62.2318 90.375 59.8802 89.3984C57.5286 88.4141 56.1771 86.3047 56.8568 84.6719C57.5365 83.0391 59.9896 82.5156 62.3411 83.4922C64.6927 84.4766 66.0443 86.5859 65.3646 88.2188Z" fill="#333333"/>
<path d="M67.9769 81.9895C68.6551 80.3603 67.2997 78.2465 64.9495 77.2682C62.5993 76.2899 60.1443 76.8176 59.4661 78.4468C58.7879 80.076 60.1434 82.1898 62.4936 83.1681C64.8438 84.1464 67.2988 83.6187 67.9769 81.9895Z" fill="#333333"/>
<path d="M59.4662 78.4453L56.8568 84.6719L62.5521 88.6484L65.3646 88.2187L68.1381 81.3906L59.4662 78.4453Z" fill="#333333"/>
<path d="M76.9818 65.7344C76.9818 65.7344 77.8099 63.4219 79.5755 64.1563C80.2083 64.4141 80.3099 65.2031 80.1693 66.1016C79.9193 67.7188 78.3177 72.4141 77.3333 73.6875C77.1537 73.9141 76.4583 74.4141 75.849 74.4922C75.2318 74.5703 74.7083 74.2266 74.5677 74.125C74.013 73.7109 74.2787 72.9297 74.2787 72.9297L76.9818 65.7344Z" fill="#333333"/>
<path d="M54.8568 50.3593C54.888 50.3515 54.9114 50.3437 54.9349 50.3358C58.5443 49.3593 58.9427 44.1718 55.1927 43.039C55.0989 43.0077 54.9974 42.9843 54.8958 42.9608C52.6536 42.4608 50.4661 43.5312 48.9661 45.1562C48.2005 45.9921 47.4661 46.8593 46.7786 47.7655C46.4427 48.203 46.0677 48.6483 45.7864 49.1249C45.6224 49.3983 45.5364 49.9843 45.8099 50.2108C46.2318 50.5624 47.2786 50.5702 47.8021 50.6405C50.138 50.9374 52.5599 50.9843 54.8568 50.3593ZM16.9193 38.4921C16.9036 38.4687 16.888 38.4608 16.8646 38.4452C14.6693 36.2812 10.8021 38.1483 11.5443 41.2968L11.6146 41.5468C12.1849 43.3515 13.8489 44.4765 15.638 44.8671C16.5521 45.0702 17.4739 45.2343 18.4114 45.3515C18.8646 45.4062 19.3411 45.4921 19.8021 45.4999C20.0599 45.4999 20.513 45.328 20.5521 45.0312C20.6224 44.5858 20.2083 43.8358 20.0364 43.4374C19.2864 41.6171 18.3177 39.8749 16.9193 38.4921ZM29.5286 32.1874V32.1015C29.7005 28.3671 24.888 26.4062 22.6536 29.6249L22.4896 29.8827C21.3333 31.8593 21.6771 34.2733 22.7552 36.1952C23.317 37.1838 23.9244 38.1458 24.5755 39.078C24.8958 39.5312 25.2005 40.0233 25.5755 40.4452C25.7864 40.6796 26.3099 40.9452 26.6146 40.7499C27.0755 40.453 27.4036 39.4687 27.6302 38.9921C28.6302 36.8515 29.4114 34.5624 29.5286 32.1874Z" fill="#333333"/>
<path d="M38.8568 96.6406C37.4818 94.25 33.7084 95.8203 32.4506 93.5469C31.7553 92.2891 33.5834 88.6406 31.5443 88.2969C29.0599 87.8672 27.2006 91.1562 25.0678 91.9766C24.8803 92.0469 24.6146 92.1016 24.3256 92.1484C24.2943 92.0859 24.2631 92.0469 24.2318 91.9844C23.5443 90.3984 23.8256 88.5469 24.2943 86.9375C24.3568 86.7109 24.4271 86.4844 24.5053 86.2578C25.1381 84.3984 26.0756 82.6641 27.1224 81.0156C27.6381 80.2031 28.2162 79.4297 28.7162 78.6172C28.8568 78.3984 29.0365 78.0703 29.2474 77.9297C29.4974 77.7656 29.849 77.75 30.1303 77.6797C31.4818 77.3516 32.8099 76.9141 34.1381 76.5C35.974 75.9219 34.7631 72.0391 34.0521 70.2734C34.2162 69.9453 34.3803 69.625 34.5053 69.25C34.8178 68.2734 35.224 67.3203 35.4428 66.3203C35.8021 64.6641 36.2474 63.0156 36.4115 61.3359C36.8021 59.5391 36.8178 57.6172 36.8021 55.7969C36.7709 51.125 35.4428 48.9297 30.6849 48.6172C29.5834 48.5469 28.5365 48.5781 27.4506 48.7266C22.6224 49.375 18.2162 51.6953 14.6224 54.9297C12.5599 56.7969 10.724 58.8359 9.19275 61.1641C8.99744 61.4687 8.80994 61.7969 8.62244 62.1172C8.02869 62.125 7.45057 62.1641 6.94275 62.2344C6.73182 62.2656 6.52088 62.2812 6.33338 62.2891C5.4115 62.3281 4.63025 62.25 3.849 63.0234C3.20838 63.6562 2.99744 64.4609 2.6615 65.2734C1.46619 68.2266 0.505254 71.1875 0.122442 74.3672C0.0130667 75.2422 -0.0181832 76.1016 0.0286918 76.9687C0.0755668 78.0391 -0.111933 79.1562 0.114629 80.2266C0.286504 81.0703 0.544317 81.9062 0.739629 82.7266C0.833379 83.125 0.974004 83.8594 1.34119 84.1328C1.849 84.5156 2.83338 84.2656 3.4115 84.1406C3.80213 84.0469 4.349 84.0078 4.91932 83.9297C5.24744 86.25 5.81775 88.4766 6.67713 90.5C9.45838 97.0391 16.2162 99.9219 22.9115 99.7109C23.8803 99.8281 24.8803 99.875 25.8021 99.8594C26.9428 99.8281 39.8959 98.4531 38.8568 96.6406ZM25.5678 53.125C26.7631 53.0625 28.2474 54.2969 27.8099 55.5391C27.4506 56.5547 26.4896 57.6016 25.3021 57.4609L25.2943 57.4531C24.4662 57.3281 23.5131 56.5078 23.474 55.625C23.4271 54.5078 24.3959 53.1953 25.5678 53.125Z" fill="#333333"/>
</svg>
