<svg width="31" height="30" viewBox="0 0 31 30" fill="none" xmlns="http://www.w3.org/2000/svg">
<path d="M15.4075 7.30838C11.1509 7.30838 7.71755 10.7425 7.71755 15C7.71755 19.2575 11.1509 22.6916 15.4075 22.6916C19.664 22.6916 23.0974 19.2575 23.0974 15C23.0974 10.7425 19.664 7.30838 15.4075 7.30838ZM15.4075 20.0006C12.6568 20.0006 10.408 17.758 10.408 15C10.408 12.242 12.6501 9.99944 15.4075 9.99944C18.1649 9.99944 20.4069 12.242 20.4069 15C20.4069 17.758 18.1582 20.0006 15.4075 20.0006ZM25.2056 6.99375C25.2056 7.99119 24.4024 8.78779 23.4119 8.78779C22.4147 8.78779 21.6183 7.98449 21.6183 6.99375C21.6183 6.00301 22.4214 5.19971 23.4119 5.19971C24.4024 5.19971 25.2056 6.00301 25.2056 6.99375ZM30.2987 8.81457C30.1849 6.41136 29.6361 4.28261 27.876 2.52873C26.1225 0.774852 23.9942 0.225929 21.5915 0.105433C19.1152 -0.0351445 11.693 -0.0351445 9.21672 0.105433C6.82073 0.219235 4.69246 0.768158 2.93228 2.52203C1.1721 4.27591 0.629992 6.40466 0.509524 8.80788C0.368977 11.2847 0.368977 18.7086 0.509524 21.1854C0.6233 23.5886 1.1721 25.7174 2.93228 27.4713C4.69246 29.2251 6.81404 29.7741 9.21672 29.8946C11.693 30.0351 19.1152 30.0351 21.5915 29.8946C23.9942 29.7808 26.1225 29.2318 27.876 27.4713C29.6294 25.7174 30.1782 23.5886 30.2987 21.1854C30.4393 18.7086 30.4393 11.2914 30.2987 8.81457ZM27.0996 23.843C26.5776 25.1551 25.567 26.1659 24.2485 26.6947C22.2742 27.478 17.5893 27.2972 15.4075 27.2972C13.2256 27.2972 8.53406 27.4713 6.56641 26.6947C5.25464 26.1726 4.24405 25.1618 3.71532 23.843C2.93228 21.8682 3.11298 17.1823 3.11298 15C3.11298 12.8177 2.93897 8.12507 3.71532 6.15698C4.23735 4.84492 5.24795 3.8341 6.56641 3.30525C8.54076 2.52203 13.2256 2.70278 15.4075 2.70278C17.5893 2.70278 22.2809 2.52873 24.2485 3.30525C25.5603 3.8274 26.5709 4.83822 27.0996 6.15698C27.8826 8.13176 27.7019 12.8177 27.7019 15C27.7019 17.1823 27.8826 21.8749 27.0996 23.843Z" fill="#666666"/>
</svg>
