<svg width="100" height="100" viewBox="0 0 100 100" fill="none" xmlns="http://www.w3.org/2000/svg">
<path d="M12.5 0C5.60547 0 0 6.40625 0 14.2857V85.7143C0 93.5938 5.60547 100 12.5 100H87.5C94.3945 100 100 93.5938 100 85.7143V35.7143C100 27.8348 94.3945 21.4286 87.5 21.4286H15.625C13.9062 21.4286 12.5 19.8214 12.5 17.8571C12.5 15.8929 13.9062 14.2857 15.625 14.2857H87.5C90.957 14.2857 93.75 11.0938 93.75 7.14286C93.75 3.19196 90.957 0 87.5 0H12.5ZM81.25 53.5714C82.9076 53.5714 84.4973 54.324 85.6694 55.6635C86.8415 57.0031 87.5 58.8199 87.5 60.7143C87.5 62.6087 86.8415 64.4255 85.6694 65.765C84.4973 67.1046 82.9076 67.8571 81.25 67.8571C79.5924 67.8571 78.0027 67.1046 76.8306 65.765C75.6585 64.4255 75 62.6087 75 60.7143C75 58.8199 75.6585 57.0031 76.8306 55.6635C78.0027 54.324 79.5924 53.5714 81.25 53.5714Z" fill="#333333"/>
</svg>
