<svg width="31" height="30" viewBox="0 0 31 30" fill="none" xmlns="http://www.w3.org/2000/svg">
<path d="M22.0708 9.36818V20.2515C22.0703 22.2767 21.3692 24.2515 20.0648 25.9017C18.7605 27.5519 16.9176 28.7956 14.7921 29.4601C12.6666 30.1247 10.364 30.177 8.20391 29.6099C6.04385 29.0428 4.13358 27.8844 2.73834 26.2956C1.3431 24.7067 0.532135 22.7663 0.418052 20.7437C0.303969 18.7211 0.89243 16.7167 2.10172 15.0088C3.31102 13.301 5.08113 11.9744 7.16627 11.2133C9.25142 10.4522 11.5481 10.2944 13.7375 10.7618V15.5066C12.5955 15.0191 11.3085 14.8785 10.0701 15.1062C8.83175 15.3339 7.70904 15.9174 6.87095 16.7689C6.03286 17.6205 5.52473 18.694 5.42303 19.8279C5.32133 20.9619 5.63158 22.0948 6.30706 23.0564C6.98255 24.0179 7.98674 24.7559 9.16849 25.1594C10.3502 25.5629 11.6456 25.61 12.8597 25.2936C14.0738 24.9773 15.1408 24.3145 15.9003 23.4052C16.6598 22.4958 17.0705 21.3891 17.0708 20.2515V0H22.0708C22.0708 1.98927 22.9488 3.89706 24.5116 5.30368C26.0744 6.71031 28.194 7.50054 30.4041 7.50054V12.0009C27.374 12.0045 24.4336 11.0755 22.0708 9.36818Z" fill="#666666"/>
</svg>
