<svg width="63" height="100" viewBox="0 0 63 100" fill="none" xmlns="http://www.w3.org/2000/svg">
<g clip-path="url(#clip0_157_309)">
<path d="M0 6.25V12.5H63V6.25C63 2.79297 60.1847 0 56.7 0H6.3C2.81531 0 0 2.79297 0 6.25ZM4.725 18.75H0V95.3125C0 97.9102 2.10656 100 4.725 100C7.34344 100 9.45 97.9102 9.45 95.3125V93.75H53.55V95.3125C53.55 97.9102 55.6566 100 58.275 100C60.8934 100 63 97.9102 63 95.3125V18.75H4.725ZM50.4 46.875V59.375C50.4 61.0938 48.9825 62.5 47.25 62.5C45.5175 62.5 44.1 61.0938 44.1 59.375V46.875C44.1 45.1562 45.5175 43.75 47.25 43.75C48.9825 43.75 50.4 45.1562 50.4 46.875Z" fill="#333333"/>
</g>
<defs>
<clipPath id="clip0_157_309">
<rect width="63" height="100" fill="white"/>
</clipPath>
</defs>
</svg>
